<svg xmlns="http://www.w3.org/2000/svg" viewBox="0 0 99 140" fill="#0a0a0a"><path d="M49 5h2v1h-2z M47 6h4v1h-4z M45 7h6v1h-6z M44 8h7v1h-7z M42 9h9v1h-9z M40 10h11v1h-11z M39 11h12v1h-12z M37 12h14v1h-14z M35 13h16v1h-16z M33 14h18v1h-18z M32 15h19v1h-19z M30 16h21v1h-21z M29 17h22v1h-22z M27 18h25v1h-25z M25 19h27v1h-27z M24 20h28v1h-28z M23 21h29v3h-29z M23 24h28v2h-28z M23 26h26v1h-26z M23 27h24v1h-24z M23 28h22v1h-22z M23 29h21v1h-21z M23 30h19v1h-19z M23 31h17v1h-17z M23 32h15v1h-15z M23 33h13v1h-13z M23 34h11v1h-11z M23 35h10v1h-10z M23 36h8v1h-8z M23 37h6v1h-6z M49 37h3v1h-3z M23 38h4v1h-4z M49 38h5v1h-5z M23 39h3v37h-3z M49 39h7v1h-7z M49 40h9v1h-9z M49 41h11v1h-11z M49 42h13v1h-13z M49 43h14v1h-14z M49 44h16v1h-16z M49 45h18v1h-18z M49 46h20v1h-20z M49 47h22v1h-22z M49 48h23v1h-23z M49 49h25v1h-25z M49 50h27v1h-27z M49 51h29v1h-29z M49 52h31v1h-31z M49 53h32v1h-32z M49 54h34v1h-34z M49 55h36v1h-36z M49 56h38v1h-38z M49 57h40v1h-40z M49 58h42v1h-42z M49 59h44v1h-44z M49 60h46v5h-46z M49 65h3v22h-3z M53 65h42v1h-42z M55 66h40v1h-40z M57 67h38v1h-38z M59 68h36v1h-36z M60 69h35v1h-35z M62 70h33v1h-33z M64 71h31v1h-31z M66 72h29v1h-29z M67 73h28v1h-28z M69 74h26v1h-26z M71 75h24v1h-24z M21 76h5v1h-5z M73 76h22v1h-22z M20 77h6v1h-6z M74 77h21v1h-21z M18 78h8v1h-8z M76 78h19v1h-19z M16 79h10v1h-10z M78 79h17v1h-17z M14 80h12v1h-12z M80 80h15v1h-15z M13 81h13v1h-13z M82 81h13v1h-13z M11 82h15v1h-15z M84 82h11v1h-11z M9 83h17v1h-17z M85 83h10v1h-10z M7 84h19v1h-19z M87 84h8v1h-8z M5 85h21v15h-21z M89 85h6v1h-6z M91 86h4v1h-4z M49 87h4v1h-4z M92 87h3v1h-3z M47 88h7v1h-7z M93 88h2v22h-2z M45 89h5v1h-5z M51 89h5v1h-5z M43 90h5v1h-5z M53 90h5v1h-5z M41 91h6v1h-6z M54 91h5v1h-5z M40 92h5v1h-5z M56 92h5v1h-5z M38 93h5v1h-5z M58 93h5v1h-5z M36 94h5v1h-5z M60 94h5v1h-5z M34 95h5v1h-5z M62 95h4v1h-4z M32 96h5v1h-5z M63 96h5v1h-5z M31 97h5v1h-5z M65 97h5v1h-5z M29 98h5v1h-5z M67 98h5v1h-5z M27 99h5v1h-5z M69 99h4v1h-4z M5 100h25v1h-25z M71 100h4v1h-4z M5 101h23v1h-23z M72 101h5v1h-5z M5 102h21v1h-21z M74 102h5v1h-5z M5 103h19v1h-19z M76 103h5v1h-5z M5 104h18v1h-18z M78 104h5v1h-5z M5 105h16v1h-16z M79 105h5v1h-5z M5 106h14v1h-14z M81 106h5v1h-5z M5 107h12v1h-12z M83 107h5v1h-5z M5 108h11v1h-11z M84 108h6v1h-6z M5 109h9v1h-9z M86 109h5v1h-5z M5 110h7v1h-7z M88 110h7v1h-7z M5 111h5v1h-5z M90 111h5v1h-5z M5 112h4v1h-4z M91 112h4v1h-4z M6 113h5v1h-5z M89 113h6v1h-6z M8 114h5v1h-5z M88 114h5v1h-5z M10 115h4v1h-4z M86 115h5v1h-5z M12 116h5v1h-5z M84 116h5v1h-5z M13 117h6v1h-6z M82 117h5v1h-5z M15 118h6v1h-6z M80 118h5v1h-5z M17 119h5v1h-5z M78 119h5v1h-5z M19 120h5v1h-5z M76 120h5v1h-5z M21 121h6v1h-6z M74 121h5v1h-5z M23 122h5v1h-5z M72 122h6v1h-6z M25 123h5v1h-5z M70 123h6v1h-6z M27 124h5v1h-5z M68 124h6v1h-6z M29 125h5v1h-5z M66 125h6v1h-6z M30 126h6v1h-6z M65 126h5v1h-5z M32 127h6v1h-6z M63 127h5v1h-5z M34 128h6v1h-6z M61 128h5v1h-5z M36 129h6v1h-6z M59 129h5v1h-5z M38 130h6v1h-6z M58 130h4v1h-4z M41 131h5v1h-5z M56 131h5v1h-5z M42 132h6v1h-6z M54 132h5v1h-5z M44 133h5v1h-5z M52 133h5v1h-5z M46 134h9v1h-9z M48 135h5v1h-5z M50 136h1v1h-1z"/></svg>
